HIERARCHY
ROOT Hips
{
    OFFSET 0.000000 0.000000 0.000000
    CHANNELS 6 Xposition Yposition Zposition Zrotation Xrotation Yrotation
    JOINT Spine
    {
        OFFSET 0.000002 7.164412 0.000002
        CHANNELS 3 Zrotation Xrotation Yrotation
        JOINT Spine1
        {
            OFFSET -0.000001 20.126801 -0.000002
            CHANNELS 3 Zrotation Xrotation Yrotation
            JOINT Neck
            {
                OFFSET 0.000000 21.094069 0.000000
                CHANNELS 3 Zrotation Xrotation Yrotation
                JOINT Head
                {
                    OFFSET -0.000001 12.838277 1.776080
                    CHANNELS 3 Zrotation Xrotation Yrotation
                    End Site
                    {
                        OFFSET 0.000000 17.760757 0.000000
                    }
                }
            }
            JOINT LeftShoulder
            {
                OFFSET 3.550527 15.465700 -0.908803
                CHANNELS 3 Zrotation Xrotation Yrotation
                JOINT LeftArm
                {
                    OFFSET 12.513296 -0.000006 -0.000002
                    CHANNELS 3 Zrotation Xrotation Yrotation
                    JOINT LeftForeArm
                    {
                        OFFSET 24.225996 -0.000003 0.000001
                        CHANNELS 3 Zrotation Xrotation Yrotation
                        JOINT LeftHand
                        {
                            OFFSET 20.711399 -0.000005 -0.000004
                            CHANNELS 3 Zrotation Xrotation Yrotation
                            JOINT LeftHandThumb1
                            {
                                OFFSET 2.121969 -2.411331 3.375859
                                CHANNELS 3 Zrotation Xrotation Yrotation
                                JOINT LeftHandThumb2
                                {
                                    OFFSET 2.803208 0.000003 0.000001
                                    CHANNELS 3 Zrotation Xrotation Yrotation
                                    JOINT LeftHandThumb3
                                    {
                                        OFFSET 2.395929 0.000004 -0.000003
                                        CHANNELS 3 Zrotation Xrotation Yrotation
                                        End Site
                                        {
                                            OFFSET 2.127676 0.000000 0.000000
                                        }
                                    }
                                }
                            }
                            JOINT LeftHandIndex1
                            {
                                OFFSET 8.680775 0.000005 3.375860
                                CHANNELS 3 Zrotation Xrotation Yrotation
                                JOINT LeftHandIndex2
                                {
                                    OFFSET 4.218178 -0.000000 -0.000000
                                    CHANNELS 3 Zrotation Xrotation Yrotation
                                    JOINT LeftHandIndex3
                                    {
                                        OFFSET 2.109086 -0.000004 0.000002
                                        CHANNELS 3 Zrotation Xrotation Yrotation
                                        End Site
                                        {
                                            OFFSET 1.872952 0.000000 0.000000
                                        }
                                    }
                                }
                            }
                            JOINT LeftHandMiddle1
                            {
                                OFFSET 8.680778 -0.000002 1.118860
                                CHANNELS 3 Zrotation Xrotation Yrotation
                                JOINT LeftHandMiddle2
                                {
                                    OFFSET 4.640003 -0.000004 -0.000001
                                    CHANNELS 3 Zrotation Xrotation Yrotation
                                    JOINT LeftHandMiddle3
                                    {
                                        OFFSET 2.530911 0.000002 -0.000001
                                        CHANNELS 3 Zrotation Xrotation Yrotation
                                        End Site
                                        {
                                            OFFSET 2.247544 0.000000 0.000000
                                        }
                                    }
                                }
                            }
                            JOINT LeftHandRing1
                            {
                                OFFSET 8.198517 0.000004 -1.118860
                                CHANNELS 3 Zrotation Xrotation Yrotation
                                JOINT LeftHandRing2
                                {
                                    OFFSET 4.218183 -0.000002 -0.000002
                                    CHANNELS 3 Zrotation Xrotation Yrotation
                                    JOINT LeftHandRing3
                                    {
                                        OFFSET 2.109094 0.000005 -0.000000
                                        CHANNELS 3 Zrotation Xrotation Yrotation
                                        End Site
                                        {
                                            OFFSET 1.872952 0.000000 0.000000
                                        }
                                    }
                                }
                            }
                            JOINT LeftHandPinky1
                            {
                                OFFSET 7.716254 0.000002 -3.375863
                                CHANNELS 3 Zrotation Xrotation Yrotation
                                JOINT LeftHandPinky2
                                {
                                    OFFSET 3.374536 0.000002 0.000001
                                    CHANNELS 3 Zrotation Xrotation Yrotation
                                    JOINT LeftHandPinky3
                                    {
                                        OFFSET 1.687274 -0.000002 -0.000004
                                        CHANNELS 3 Zrotation Xrotation Yrotation
                                        End Site
                                        {
                                            OFFSET 1.498360 0.000000 0.000000
                                        }
                                    }
                                }
                            }
                        }
                    }
                }
            }
            JOINT RightShoulder
            {
                OFFSET -3.550529 15.465699 -0.908801
                CHANNELS 3 Zrotation Xrotation Yrotation
                JOINT RightArm
                {
                    OFFSET -12.513299 -0.000001 -0.000000
                    CHANNELS 3 Zrotation Xrotation Yrotation
                    JOINT RightForeArm
                    {
                        OFFSET -24.226000 -0.000003 -0.000001
                        CHANNELS 3 Zrotation Xrotation Yrotation
                        JOINT RightHand
                        {
                            OFFSET -20.711397 -0.000003 -0.000002
                            CHANNELS 3 Zrotation Xrotation Yrotation
                            JOINT RightHandThumb1
                            {
                                OFFSET -2.121970 -2.411331 3.375859
                                CHANNELS 3 Zrotation Xrotation Yrotation
                                JOINT RightHandThumb2
                                {
                                    OFFSET -2.803209 -0.000004 0.000004
                                    CHANNELS 3 Zrotation Xrotation Yrotation
                                    JOINT RightHandThumb3
                                    {
                                        OFFSET -2.395928 0.000004 -0.000003
                                        CHANNELS 3 Zrotation Xrotation Yrotation
                                        End Site
                                        {
                                            OFFSET -2.127676 0.000000 0.000000
                                        }
                                    }
                                }
                            }
                            JOINT RightHandIndex1
                            {
                                OFFSET -8.680779 0.000001 3.375859
                                CHANNELS 3 Zrotation Xrotation Yrotation
                                JOINT RightHandIndex2
                                {
                                    OFFSET -4.218179 0.000003 -0.000001
                                    CHANNELS 3 Zrotation Xrotation Yrotation
                                    JOINT RightHandIndex3
                                    {
                                        OFFSET -2.109090 -0.000002 0.000000
                                        CHANNELS 3 Zrotation Xrotation Yrotation
                                        End Site
                                        {
                                            OFFSET -1.872952 0.000000 0.000000
                                        }
                                    }
                                }
                            }
                            JOINT RightHandMiddle1
                            {
                                OFFSET -8.680779 -0.000002 1.118859
                                CHANNELS 3 Zrotation Xrotation Yrotation
                                JOINT RightHandMiddle2
                                {
                                    OFFSET -4.639998 0.000003 -0.000001
                                    CHANNELS 3 Zrotation Xrotation Yrotation
                                    JOINT RightHandMiddle3
                                    {
                                        OFFSET -2.530910 -0.000000 -0.000000
                                        CHANNELS 3 Zrotation Xrotation Yrotation
                                        End Site
                                        {
                                            OFFSET -2.247544 0.000000 0.000000
                                        }
                                    }
                                }
                            }
                            JOINT RightHandRing1
                            {
                                OFFSET -8.198519 -0.000004 -1.118859
                                CHANNELS 3 Zrotation Xrotation Yrotation
                                JOINT RightHandRing2
                                {
                                    OFFSET -4.218180 -0.000005 0.000000
                                    CHANNELS 3 Zrotation Xrotation Yrotation
                                    JOINT RightHandRing3
                                    {
                                        OFFSET -2.109090 0.000002 0.000002
                                        CHANNELS 3 Zrotation Xrotation Yrotation
                                        End Site
                                        {
                                            OFFSET -1.872952 0.000000 0.000000
                                        }
                                    }
                                }
                            }
                            JOINT RightHandPinky1
                            {
                                OFFSET -7.716249 0.000004 -3.375858
                                CHANNELS 3 Zrotation Xrotation Yrotation
                                JOINT RightHandPinky2
                                {
                                    OFFSET -3.374539 0.000003 -0.000000
                                    CHANNELS 3 Zrotation Xrotation Yrotation
                                    JOINT RightHandPinky3
                                    {
                                        OFFSET -1.687270 -0.000004 -0.000001
                                        CHANNELS 3 Zrotation Xrotation Yrotation
                                        End Site
                                        {
                                            OFFSET -1.498360 0.000000 0.000000
                                        }
                                    }
                                }
                            }
                        }
                    }
                }
            }
        }
    }
    JOINT LeftUpLeg
    {
        OFFSET 8.880377 0.000003 0.000001
        CHANNELS 3 Zrotation Xrotation Yrotation
        JOINT LeftLeg
        {
            OFFSET -0.000000 -40.387413 0.000001
            CHANNELS 3 Zrotation Xrotation Yrotation
            JOINT LeftFoot
            {
                OFFSET -0.000000 -36.911304 0.000000
                CHANNELS 3 Zrotation Xrotation Yrotation
                JOINT LeftToeBase
                {
                    OFFSET 0.000003 -5.772240 13.320597
                    CHANNELS 3 Zrotation Xrotation Yrotation
                    End Site
                    {
                        OFFSET 0.000000 0.000000 3.552151
                    }
                }
            }
        }
    }
    JOINT RightUpLeg
    {
        OFFSET -8.880380 -0.000003 -0.000001
        CHANNELS 3 Zrotation Xrotation Yrotation
        JOINT RightLeg
        {
            OFFSET 0.000001 -40.387405 0.000000
            CHANNELS 3 Zrotation Xrotation Yrotation
            JOINT RightFoot
            {
                OFFSET -0.000001 -36.911304 -0.000001
                CHANNELS 3 Zrotation Xrotation Yrotation
                JOINT RightToeBase
                {
                    OFFSET 0.000000 -5.772241 13.320600
                    CHANNELS 3 Zrotation Xrotation Yrotation
                    End Site
                    {
                        OFFSET 0.000000 0.000000 3.552151
                    }
                }
            }
        }
    }
}
MOTION
Frames: 4
Frame Time: 0.013889
-15.772368    82.808594    94.519676    -2.834002    9.408262    -20.158541    1.966575    -24.590219    4.717090    -3.157952    12.685950    4.880337    -3.285077    -5.257648    -14.143170    4.377007    1.109942    -14.010307    -3.400117    -1.216596    0.919506    -40.270309    -10.731439    -11.219121    -4.855333    -9.017354    -28.456348    -0.679297    4.235921    -4.373971    33.014271    32.850208    -45.190350    -17.410408    -2.366756    23.203722    -0.000000    0.000000    -0.000000    -13.359512    17.543119    -5.984824    -12.727472    0.000001    0.000003    -12.727469    0.000000    -0.000001    -11.571233    8.819996    -3.241494    -11.432551    -0.000001    -0.000004    -11.432546    0.000002    0.000002    -10.916311    -8.839744    -4.126911    -10.785083    0.000003    0.000004    -10.785091    -0.000004    0.000003    -10.647684    -17.709547    -8.131756    -10.137614    0.000003    0.000004    -10.137631    -0.000001    -0.000007    -1.788607    0.603212    7.312398    38.700253    16.274979    23.973976    0.830843    -12.908627    3.714202    -5.728341    7.548198    -21.639050    -38.197445    28.915882    45.101028    15.362186    -1.487657    -23.272612    -0.000000    0.000000    -0.000000    14.572663    17.456585    3.804751    13.887709    -0.000001    0.000000    13.887708    -0.000001    0.000001    10.899981    8.840224    2.436911    10.768929    -0.000003    -0.000001    10.768932    -0.000000    -0.000000    9.322345    -8.883043    1.507536    9.209546    0.000000    -0.000000    9.209550    -0.000000    -0.000000    8.038840    -17.834335    2.587701    7.650162    -0.000000    0.000000    7.650159    0.000001    0.000000    13.905759    5.222153    12.727676    0.000003    34.402317    -0.000002    -0.398598    16.013224    -7.542443    0.000001    -10.003561    0.000001    14.355331    -6.702957    -28.916348    0.000001    7.280527    -0.000004    1.374754    -8.404786    -8.986015    -0.000000    2.056618    0.000000    
-15.950383    82.770096    94.611565    -2.867656    9.146208    -20.366362    2.152882    -24.261208    5.227380    -3.287168    12.751985    5.376033    -3.573313    -5.365995    -14.483838    4.470752    1.187821    -14.328881    -3.441112    -1.080799    1.030990    -40.851875    -10.981647    -10.522618    -5.084067    -9.512939    -28.294203    0.716978    4.166761    -4.407976    32.825729    33.006718    -45.109299    -17.618738    -2.455960    23.194948    -0.000000    0.000000    -0.000000    -13.183549    17.555046    -5.997843    -12.559274    0.000002    0.000002    -12.559269    0.000003    0.000002    -11.296811    8.828408    -3.263573    -11.161243    0.000002    0.000000    -11.161244    0.000002    -0.000002    -10.589705    -8.849164    -4.078407    -10.462234    0.000000    0.000000    -10.462223    0.000003    0.000002    -10.255238    -17.730534    -8.015730    -9.763212    0.000001    0.000004    -9.763217    0.000005    0.000006    -1.616976    0.627572    7.579967    38.905781    16.353741    24.694040    0.886989    -13.690724    3.742584    -7.915150    7.602743    -21.092649    -38.037899    29.076078    44.947216    15.357743    -1.485755    -23.272730    -0.000000    0.000000    -0.000000    14.245070    17.480688    3.631096    13.574280    -0.000004    -0.000000    13.574293    0.000004    -0.000001    10.641190    8.847697    2.340698    10.513137    0.000003    0.000001    10.513122    0.000000    -0.000000    9.092659    -8.888728    1.598431    8.982547    -0.000000    0.000001    8.982546    -0.000000    -0.000000    7.830810    -17.842787    2.776720    7.451966    0.000000    -0.000000    7.451970    -0.000002    0.000001    13.892853    4.841050    12.451306    -0.000001    35.769463    -0.000000    -0.678621    16.215612    -6.813611    0.000001    -9.389670    0.000000    14.245050    -6.644355    -29.166618    -0.000001    8.017678    0.000006    1.046380    -8.733720    -8.707833    0.000001    1.963796    -0.000002    
-16.119436    82.728172    94.697823    -2.911819    8.864204    -20.561403    2.327071    -23.898169    5.728259    -3.406188    12.831059    5.865057    -3.848057    -5.505665    -14.788350    4.555629    1.260092    -14.609560    -3.487024    -0.923643    1.126043    -41.442726    -11.121560    -9.821630    -5.297619    -10.016954    -28.061613    2.030085    4.113340    -4.599402    32.693817    33.111801    -45.088627    -17.782581    -2.526089    23.187830    -0.000000    0.000000    -0.000000    -13.022548    17.565832    -6.000302    -12.405414    -0.000001    -0.000009    -12.405407    -0.000006    0.000005    -10.999492    8.837296    -3.286176    -10.867323    -0.000003    -0.000001    -10.867311    0.000001    0.000004    -10.221516    -8.859449    -4.042053    -10.098269    -0.000002    0.000003    -10.098278    -0.000001    -0.000010    -9.800239    -17.753887    -7.917706    -9.329230    -0.000005    -0.000004    -9.329229    0.000001    0.000005    -1.437358    0.654134    7.856292    39.154388    16.442553    25.407919    0.931125    -14.457697    3.724585    -9.968079    7.778249    -20.621862    -37.833336    29.273046    44.774052    15.366309    -1.489439    -23.272507    -0.000000    0.000000    -0.000000    13.885324    17.506529    3.429518    13.230227    0.000002    0.000003    13.230209    -0.000002    -0.000001    10.347834    8.855960    2.230981    10.223156    0.000000    0.000000    10.223138    0.000000    -0.000001    8.826597    -8.895136    1.685172    8.719612    -0.000001    0.000001    8.719610    -0.000000    0.000001    7.583206    -17.852566    2.956569    7.216078    -0.000001    0.000000    7.216068    -0.000000    0.000001    13.897043    4.414645    12.212944    -0.000002    37.250301    0.000001    -0.965142    16.378769    -6.048299    -0.000002    -8.639057    0.000001    14.128066    -6.570621    -29.292444    -0.000003    8.751616    0.000009    0.716685    -9.044860    -8.548505    0.000002    1.861223    -0.000007    
-16.341682    82.655182    94.784721    -2.996179    8.471014    -20.802355    2.540639    -23.390205    6.377470    -3.561294    12.958937    6.504987    -4.177214    -5.682716    -15.202828    4.664069    1.382677    -14.996690    -3.523391    -0.734644    1.230415    -42.263565    -11.174109    -8.937963    -5.606995    -10.797796    -27.656010    3.578594    3.828610    -4.897047    32.580700    33.197617    -45.109528    -17.945868    -2.595948    23.180548    -0.000000    0.000000    -0.000000    -12.804229    17.580236    -5.986555    -12.196779    -0.000005    -0.000004    -12.196767    -0.000000    0.000003    -10.611201    8.848550    -3.306036    -10.483461    0.000003    0.000002    -10.483479    -0.000005    -0.000006    -9.744535    -8.872239    -4.005047    -9.626825    0.000003    0.000002    -9.626820    -0.000002    -0.000000    -9.213948    -17.782427    -7.811806    -8.770165    0.000001    0.000005    -8.770177    -0.000003    -0.000002    -1.199630    0.669509    8.213648    39.526100    16.566406    26.373806    1.010817    -15.503010    3.776672    -12.376204    8.102718    -19.982044    -37.545059    29.538561    44.564156    15.374442    -1.492925    -23.272291    -0.000000    0.000000    -0.000000    13.321941    17.545673    3.155895    12.691556    0.000003    -0.000000    12.691559    0.000001    -0.000001    9.894429    8.868282    2.079191    9.774980    0.000001    0.000001    9.774976    0.000001    -0.000001    8.418878    -8.904586    1.798387    8.316690    0.000000    0.000000    8.316684    0.000001    -0.000001    7.207723    -17.866795    3.194000    6.858401    -0.000000    -0.000000    6.858391    0.000002    -0.000002    13.940074    3.729051    11.864769    0.000002    39.405968    -0.000001    -1.235629    16.628593    -5.132068    0.000001    -7.324116    -0.000000    13.973270    -6.512445    -29.399931    0.000002    9.827334    -0.000002    0.303281    -9.464029    -8.464476    0.000001    1.677578    0.000004    
